<?xml version="1.0" encoding="utf-8"?>
<svg version="1.1" xmlns:xlink="http://www.w3.org/1999/xlink" width="340px" height="300px" xmlns="http://www.w3.org/2000/svg">
  <defs>
    <filter x="0px" y="0px" width="340px" height="300px" filterUnits="userSpaceOnUse" id="filter89">
      <feOffset dx="5" dy="5" in="SourceAlpha" result="shadowOffsetInner" />
      <feGaussianBlur stdDeviation="2.5" in="shadowOffsetInner" result="shadowGaussian" />
      <feComposite in2="shadowGaussian" operator="atop" in="SourceAlpha" result="shadowComposite" />
      <feColorMatrix type="matrix" values="0 0 0 0 0  0 0 0 0 0  0 0 0 0 0  0 0 0 0.34901960784313724 0  " in="shadowComposite" />
    </filter>
    <g id="widget90">
      <path d="M 1 13.000000000000004  A 12 12 0 0 1 12.999999999999996 1 L 317 1  A 12 12 0 0 1 329 13 L 329 277  A 12 12 0 0 1 317 289 L 13 289  A 12 12 0 0 1 1 277 L 1 13  Z " fill-rule="nonzero" fill="#ffffff" stroke="none" />
      <path d="M 0.5 13.000000000000004  A 12.5 12.5 0 0 1 12.999999999999996 0.5 L 317 0.5  A 12.5 12.5 0 0 1 329.5 13 L 329.5 277  A 12.5 12.5 0 0 1 317 289.5 L 13 289.5  A 12.5 12.5 0 0 1 0.5 277 L 0.5 13  Z " stroke-width="1" stroke="#797979" fill="none" stroke-opacity="0.5764705882352941" />
    </g>
  </defs>
  <g>
    <use xlink:href="#widget90" filter="url(#filter89)" />
    <use xlink:href="#widget90" />
  </g>
</svg>