<?xml version="1.0" encoding="utf-8"?>
<svg version="1.1" xmlns:xlink="http://www.w3.org/1999/xlink" width="180px" height="39px" xmlns="http://www.w3.org/2000/svg">
  <g transform="matrix(1 0 0 1 -131 -34 )">
    <path d="M 132 40  A 5 5 0 0 1 137 35 L 305 35  A 5 5 0 0 1 310 40 L 310 67  A 5 5 0 0 1 305 72 L 137 72  A 5 5 0 0 1 132 67 L 132 40  Z " fill-rule="nonzero" fill="#ffffff" stroke="none" />
    <path d="M 131.5 40  A 5.5 5.5 0 0 1 137 34.5 L 305 34.5  A 5.5 5.5 0 0 1 310.5 40 L 310.5 67  A 5.5 5.5 0 0 1 305 72.5 L 137 72.5  A 5.5 5.5 0 0 1 131.5 67 L 131.5 40  Z " stroke-width="1" stroke="#797979" fill="none" stroke-opacity="0.12941176470588237" />
  </g>
</svg>