<?xml version="1.0" encoding="utf-8"?>
<svg version="1.1" xmlns:xlink="http://www.w3.org/1999/xlink" width="375px" height="50px" xmlns="http://www.w3.org/2000/svg">
  <g transform="matrix(1 0 0 1 0 -950 )">
    <path d="M 226.4873798076923 25.618489583333332  C 229.3419471153846 26.030815972222225  230.76923076923077 26.519097222222225  230.76923076923077 27.083333333333332  C 230.76923076923077 27.647569444444446  229.3419471153846 28.135850694444446  226.4873798076923 28.548177083333332  C 223.63281250000003 28.96050347222222  220.2524038461539 29.166666666666668  216.34615384615384 29  L 158.65384615384616 29  C 154.74759615384616 29.166666666666668  151.3671875 28.96050347222222  148.5126201923077 28.548177083333332  C 145.6580528846154 28.135850694444446  144.23076923076923 27.647569444444446  144.23076923076923 27.083333333333332  C 144.23076923076923 26.519097222222225  145.6580528846154 26.030815972222225  148.5126201923077 25.618489583333332  C 151.3671875 25.206163194444446  154.74759615384616 25  158.65384615384616 25  L 216.34615384615384 25  C 220.2524038461539 25  223.63281250000003 25.206163194444446  226.4873798076923 25.618489583333332  Z M 356.2950721153846 34.79817708333333  C 359.1496394230769 34.38585069444445  360.5769230769231 33.89756944444445  360 33.33333333333333  L 360 2.0833333333333313  C 360.5769230769231 1.5190972222222265  359.1496394230769 1.0308159722222265  356.2950721153846 0.6184895833333315  C 353.4405048076923 0.20616319444444198  350.0600961538462 0  346.1538461538462 0  L 28.846153846153847 0  C 24.93990384615385 0  21.559495192307697 0.20616319444444198  18.704927884615387 0.6184895833333315  C 15.850360576923078 1.0308159722222265  14.423076923076923 1.5190972222222265  15 2.0833333333333313  L 15 33.33333333333333  C 14.423076923076923 33.89756944444445  15.850360576923078 34.38585069444445  18.704927884615387 34.79817708333333  C 21.559495192307697 35.21050347222223  24.93990384615385 35.41666666666667  28.846153846153847 35  L 346.1538461538462 35  C 350.0600961538462 35.41666666666667  353.4405048076923 35.21050347222223  356.2950721153846 34.79817708333333  Z M 370.71814903846155 49.38151041666667  C 373.5727163461539 48.969184027777786  375.00000000000006 48.480902777777786  375 47.91666666666667  L 375 39.58333333333333  C 375.00000000000006 39.01909722222223  373.5727163461539 38.53081597222223  370.71814903846155 38.11848958333333  C 367.8635817307692 37.70616319444445  364.4831730769231 37.5  360.5769230769231 37  L 14.423076923076923 37  C 10.516826923076927 37.5  7.136418269230774 37.70616319444445  4.281850961538462 38.11848958333333  C 1.427283653846156 38.53081597222223  0 39.01909722222223  0 39.58333333333333  L 0 47.91666666666667  C 0 48.480902777777786  1.427283653846156 48.969184027777786  4.281850961538462 49.38151041666667  C 7.136418269230774 49.79383680555556  10.516826923076927 50  14.423076923076923 50  L 360.5769230769231 50  C 364.4831730769231 50  367.8635817307692 49.79383680555556  370.71814903846155 49.38151041666667  Z " fill-rule="nonzero" fill="#000000" stroke="none" transform="matrix(1 0 0 1 0 950 )" />
  </g>
</svg>