<?xml version="1.0" encoding="utf-8"?>
<svg version="1.1" xmlns:xlink="http://www.w3.org/1999/xlink" width="110px" height="95px" xmlns="http://www.w3.org/2000/svg">
  <g transform="matrix(1 0 0 1 -10 -10 )">
    <path d="M 10 10  L 120 10  L 120 105  L 10 105  L 10 10  " fill-rule="nonzero" fill="#cccccc" stroke="none" />
    <path d="M 17 17  L 113 17  L 113 98  L 17 98  L 17 17  " fill-rule="nonzero" fill="#ffffff" stroke="none" />
    <path d="M 74.325 38.5  C 70.33500000000001 38.5  67.2 35.365  67.2 31.375  C 67.2 27.384999999999998  70.33500000000001 24.25  74.325 24.25  C 78.315 24.25  81.45 27.384999999999998  81.45 31.375  C 81.45 35.365  78.315 38.5  74.325 38.5  " fill-rule="nonzero" fill="#cccccc" stroke="none" />
    <path d="M 20 96  L 20 54.199999999999996  L 42.75 35.199999999999996  L 74.6 56.61818181818182  L 92.8 46.6  L 111 56.61818181818182  L 111 96  L 20 96  " fill-rule="nonzero" fill="#169bd5" stroke="none" />
  </g>
</svg>