<?xml version="1.0" encoding="utf-8"?>
<svg version="1.1" xmlns:xlink="http://www.w3.org/1999/xlink" width="375px" height="46px" xmlns="http://www.w3.org/2000/svg">
  <g>
    <path d="M 226.4873798076923 22.430989583333336  C 229.3419471153846 22.05164930555555  230.76923076923077 21.60243055555555  230.76923076923077 21.083333333333336  C 230.76923076923077 20.564236111111107  229.3419471153846 20.115017361111107  226.4873798076923 19.735677083333336  C 223.63281250000003 19.356336805555557  220.2524038461539 19.166666666666664  216.34615384615384 20  L 158.65384615384616 20  C 154.74759615384616 19.166666666666664  151.3671875 19.356336805555557  148.5126201923077 19.735677083333336  C 145.6580528846154 20.115017361111107  144.23076923076923 20.564236111111107  144.23076923076923 21.083333333333336  C 144.23076923076923 21.60243055555555  145.6580528846154 22.05164930555555  148.5126201923077 22.430989583333336  C 151.3671875 22.810329861111107  154.74759615384616 23  158.65384615384616 23  L 216.34615384615384 23  C 220.2524038461539 23  223.63281250000003 22.810329861111107  226.4873798076923 22.430989583333336  Z M 356.2950721153846 13.985677083333336  C 359.1496394230769 14.365017361111109  360.5769230769231 14.814236111111109  360 15.333333333333336  L 360 44.083333333333336  C 360.5769230769231 44.60243055555555  359.1496394230769 45.05164930555555  356.2950721153846 45.430989583333336  C 353.4405048076923 45.810329861111114  350.0600961538462 46  346.1538461538462 46  L 28.846153846153847 46  C 24.93990384615385 46  21.559495192307697 45.810329861111114  18.704927884615387 45.430989583333336  C 15.850360576923078 45.05164930555555  14.423076923076923 44.60243055555555  15 44.083333333333336  L 15 15.333333333333336  C 14.423076923076923 14.814236111111109  15.850360576923078 14.365017361111109  18.704927884615387 13.985677083333336  C 21.559495192307697 13.606336805555552  24.93990384615385 13.416666666666664  28.846153846153847 14  L 346.1538461538462 14  C 350.0600961538462 13.416666666666664  353.4405048076923 13.606336805555552  356.2950721153846 13.985677083333336  Z M 370.71814903846155 0.569010416666665  C 373.5727163461539 0.9483506944444382  375.00000000000006 1.3975694444444382  375 1.916666666666665  L 375 9.583333333333336  C 375.00000000000006 10.102430555555552  373.5727163461539 10.551649305555552  370.71814903846155 10.930989583333336  C 367.8635817307692 11.310329861111109  364.4831730769231 11.5  360.5769230769231 12  L 14.423076923076923 12  C 10.516826923076927 11.5  7.136418269230774 11.310329861111109  4.281850961538462 10.930989583333336  C 1.427283653846156 10.551649305555552  0 10.102430555555552  0 9.583333333333336  L 0 1.916666666666665  C 0 1.3975694444444382  1.427283653846156 0.9483506944444382  4.281850961538462 0.569010416666665  C 7.136418269230774 0.18967013888888662  10.516826923076927 0  14.423076923076923 0  L 360.5769230769231 0  C 364.4831730769231 0  367.8635817307692 0.18967013888888662  370.71814903846155 0.569010416666665  Z " fill-rule="nonzero" fill="#000000" stroke="none" />
  </g>
</svg>