<?xml version="1.0" encoding="utf-8"?>
<svg version="1.1" xmlns:xlink="http://www.w3.org/1999/xlink" width="36px" height="14px" xmlns="http://www.w3.org/2000/svg">
  <defs>
    <mask fill="white" id="clip64">
      <path d="M 0 10.5  L 0 3.5  C 0 1.539999999999992  0.9051428571428525 0  2.057142857142857 0  L 14.843455945252362 0  L 33.94285714285714 0  C 35.094857142857144 0  36 1.539999999999992  36 3.5  L 36 10.5  C 36 12.460000000000008  35.094857142857144 14  33.94285714285714 14  L 2.057142857142857 14  C 0.9051428571428525 14  0 12.460000000000008  0 10.5  Z " fill-rule="evenodd" />
    </mask>
  </defs>
  <g transform="matrix(1 0 0 1 -140 -614 )">
    <path d="M 0 10.5  L 0 3.5  C 0 1.539999999999992  0.9051428571428525 0  2.057142857142857 0  L 14.843455945252362 0  L 33.94285714285714 0  C 35.094857142857144 0  36 1.539999999999992  36 3.5  L 36 10.5  C 36 12.460000000000008  35.094857142857144 14  33.94285714285714 14  L 2.057142857142857 14  C 0.9051428571428525 14  0 12.460000000000008  0 10.5  Z " fill-rule="nonzero" fill="#c9c9c9" stroke="none" fill-opacity="0" transform="matrix(1 0 0 1 140 614 )" />
    <path d="M 0 10.5  L 0 3.5  C 0 1.539999999999992  0.9051428571428525 0  2.057142857142857 0  L 14.843455945252362 0  L 33.94285714285714 0  C 35.094857142857144 0  36 1.539999999999992  36 3.5  L 36 10.5  C 36 12.460000000000008  35.094857142857144 14  33.94285714285714 14  L 2.057142857142857 14  C 0.9051428571428525 14  0 12.460000000000008  0 10.5  Z " stroke-width="2" stroke="#c9c9c9" fill="none" transform="matrix(1 0 0 1 140 614 )" mask="url(#clip64)" />
  </g>
</svg>