<?xml version="1.0" encoding="utf-8"?>
<svg version="1.1" xmlns:xlink="http://www.w3.org/1999/xlink" width="39px" height="14px" xmlns="http://www.w3.org/2000/svg">
  <defs>
    <mask fill="white" id="clip65">
      <path d="M 0 10.5  L 0 3.5  C 0 1.539999999999992  0.9805714285714234 0  2.2285714285714286 0  L 16.080410607356725 0  L 36.77142857142857 0  C 38.01942857142858 0  39 1.539999999999992  39 3.5  L 39 10.5  C 39 12.460000000000008  38.01942857142858 14  36.77142857142857 14  L 2.2285714285714286 14  C 0.9805714285714234 14  0 12.460000000000008  0 10.5  Z " fill-rule="evenodd" />
    </mask>
  </defs>
  <g transform="matrix(1 0 0 1 -181 -614 )">
    <path d="M 0 10.5  L 0 3.5  C 0 1.539999999999992  0.9805714285714234 0  2.2285714285714286 0  L 16.080410607356725 0  L 36.77142857142857 0  C 38.01942857142858 0  39 1.539999999999992  39 3.5  L 39 10.5  C 39 12.460000000000008  38.01942857142858 14  36.77142857142857 14  L 2.2285714285714286 14  C 0.9805714285714234 14  0 12.460000000000008  0 10.5  Z " fill-rule="nonzero" fill="#c9c9c9" stroke="none" fill-opacity="0" transform="matrix(1 0 0 1 181 614 )" />
    <path d="M 0 10.5  L 0 3.5  C 0 1.539999999999992  0.9805714285714234 0  2.2285714285714286 0  L 16.080410607356725 0  L 36.77142857142857 0  C 38.01942857142858 0  39 1.539999999999992  39 3.5  L 39 10.5  C 39 12.460000000000008  38.01942857142858 14  36.77142857142857 14  L 2.2285714285714286 14  C 0.9805714285714234 14  0 12.460000000000008  0 10.5  Z " stroke-width="2" stroke="#c9c9c9" fill="none" transform="matrix(1 0 0 1 181 614 )" mask="url(#clip65)" />
  </g>
</svg>