<?xml version="1.0" encoding="utf-8"?>
<svg version="1.1" xmlns:xlink="http://www.w3.org/1999/xlink" width="29px" height="14px" xmlns="http://www.w3.org/2000/svg">
  <defs>
    <mask fill="white" id="clip66">
      <path d="M 0 10.5  L 0 3.5  C 0 1.539999999999992  0.7291428571428533 0  1.657142857142857 0  L 11.957228400342181 0  L 27.34285714285714 0  C 28.270857142857146 0  29 1.539999999999992  29 3.5  L 29 10.5  C 29 12.460000000000008  28.270857142857146 14  27.34285714285714 14  L 1.657142857142857 14  C 0.7291428571428533 14  0 12.460000000000008  0 10.5  Z " fill-rule="evenodd" />
    </mask>
  </defs>
  <g transform="matrix(1 0 0 1 -225 -614 )">
    <path d="M 0 10.5  L 0 3.5  C 0 1.539999999999992  0.7291428571428533 0  1.657142857142857 0  L 11.957228400342181 0  L 27.34285714285714 0  C 28.270857142857146 0  29 1.539999999999992  29 3.5  L 29 10.5  C 29 12.460000000000008  28.270857142857146 14  27.34285714285714 14  L 1.657142857142857 14  C 0.7291428571428533 14  0 12.460000000000008  0 10.5  Z " fill-rule="nonzero" fill="#c9c9c9" stroke="none" fill-opacity="0" transform="matrix(1 0 0 1 225 614 )" />
    <path d="M 0 10.5  L 0 3.5  C 0 1.539999999999992  0.7291428571428533 0  1.657142857142857 0  L 11.957228400342181 0  L 27.34285714285714 0  C 28.270857142857146 0  29 1.539999999999992  29 3.5  L 29 10.5  C 29 12.460000000000008  28.270857142857146 14  27.34285714285714 14  L 1.657142857142857 14  C 0.7291428571428533 14  0 12.460000000000008  0 10.5  Z " stroke-width="2" stroke="#c9c9c9" fill="none" transform="matrix(1 0 0 1 225 614 )" mask="url(#clip66)" />
  </g>
</svg>