<?xml version="1.0" encoding="utf-8"?>
<svg version="1.1" xmlns:xlink="http://www.w3.org/1999/xlink" width="29px" height="35px" xmlns="http://www.w3.org/2000/svg">
  <g transform="matrix(1 0 0 1 -471 -185 )">
    <path d="M 19.572596685082893 13.610891870560359  C 15.205442414778558 8.501759623861744  15.086408839778978 0.19337016574585925  15.086408839778978 0.19337016574585925  C 15.086408839778978 0.19337016574585925  13.97023676861101 7.507161719499445  9.404285714285685 12.806122448979563  C 5.478160442285016 17.362540901087787  0.5661904761904792 18.843537414965965  0.5661904761904792 18.843537414965965  C 0.5661904761904792 18.843537414965965  5.855393615416765 18.157198242417028  9.959337016574558 22.29281767955801  C 14.597853608233233 26.967136377655265  15.66 34.526440410418296  15.66 34.526440410418296  C 15.66 34.526440410418296  15.609133395627312 26.757038266175275  19.572596685082893 22.29281767955801  C 23.788510446727454 17.54425117808251  28.599523809523767 19.77891156462586  28.599523809523767 19.77891156462586  C 28.599523809523767 19.77891156462586  23.85494377030434 18.620808221222376  19.572596685082893 13.610891870560359  Z " fill-rule="nonzero" fill="#f6c87f" stroke="none" transform="matrix(1 0 0 1 471 185 )" />
  </g>
</svg>