<?xml version="1.0" encoding="utf-8"?>
<svg version="1.1" xmlns:xlink="http://www.w3.org/1999/xlink" width="76px" height="24px" xmlns="http://www.w3.org/2000/svg">
  <defs>
    <mask fill="white" id="clip72">
      <path d="M 0.6153846153845848 7  L 4.076923076923038 0.5384615384615472  C 4.076923076923038 0.5384615384615472  17.12660765790588 6.925388632963575  33.694854294251115 7  C 49.64902504315148 7.0718460145865265  62.15384615384613 0.5384615384615472  62.15384615384613 0.5384615384615472  L 65.23076923076923 6.692307692307679  C 65.23076923076923 6.692307692307679  51.354641028030414 13.724556899426148  33.694854294251115 13.726224783861653  C 15.170009692521717 13.727974368975367  0.6153846153845848 7  0.6153846153845848 7  Z " fill-rule="evenodd" />
    </mask>
    <filter x="364px" y="271px" width="76px" height="24px" filterUnits="userSpaceOnUse" id="filter73">
      <feOffset dx="5" dy="5" in="SourceAlpha" result="shadowOffsetInner" />
      <feGaussianBlur stdDeviation="2.5" in="shadowOffsetInner" result="shadowGaussian" />
      <feComposite in2="shadowGaussian" operator="atop" in="SourceAlpha" result="shadowComposite" />
      <feColorMatrix type="matrix" values="0 0 0 0 0  0 0 0 0 0  0 0 0 0 0  0 0 0 0.34901960784313724 0  " in="shadowComposite" />
    </filter>
    <g id="widget74">
      <path d="M 0.6153846153845848 7  L 4.076923076923038 0.5384615384615472  C 4.076923076923038 0.5384615384615472  17.12660765790588 6.925388632963575  33.694854294251115 7  C 49.64902504315148 7.0718460145865265  62.15384615384613 0.5384615384615472  62.15384615384613 0.5384615384615472  L 65.23076923076923 6.692307692307679  C 65.23076923076923 6.692307692307679  51.354641028030414 13.724556899426148  33.694854294251115 13.726224783861653  C 15.170009692521717 13.727974368975367  0.6153846153845848 7  0.6153846153845848 7  Z " fill-rule="nonzero" fill="#151316" stroke="none" transform="matrix(1 0 0 1 364 271 )" />
      <path d="M 0.6153846153845848 7  L 4.076923076923038 0.5384615384615472  C 4.076923076923038 0.5384615384615472  17.12660765790588 6.925388632963575  33.694854294251115 7  C 49.64902504315148 7.0718460145865265  62.15384615384613 0.5384615384615472  62.15384615384613 0.5384615384615472  L 65.23076923076923 6.692307692307679  C 65.23076923076923 6.692307692307679  51.354641028030414 13.724556899426148  33.694854294251115 13.726224783861653  C 15.170009692521717 13.727974368975367  0.6153846153845848 7  0.6153846153845848 7  Z " stroke-width="2" stroke="#797979" fill="none" transform="matrix(1 0 0 1 364 271 )" mask="url(#clip72)" />
    </g>
  </defs>
  <g transform="matrix(1 0 0 1 -364 -271 )">
    <use xlink:href="#widget74" filter="url(#filter73)" />
    <use xlink:href="#widget74" />
  </g>
</svg>