<?xml version="1.0" encoding="utf-8"?>
<svg version="1.1" xmlns:xlink="http://www.w3.org/1999/xlink" width="39px" height="146px" xmlns="http://www.w3.org/2000/svg">
  <defs>
    <linearGradient gradientUnits="userSpaceOnUse" x1="9.5" y1="0" x2="9.5" y2="126" id="LinearGradient84">
      <stop id="Stop85" stop-color="#e43635" offset="0" />
      <stop id="Stop86" stop-color="#931611" offset="1" />
    </linearGradient>
    <filter x="384px" y="354px" width="39px" height="146px" filterUnits="userSpaceOnUse" id="filter87">
      <feOffset dx="5" dy="5" in="SourceAlpha" result="shadowOffsetInner" />
      <feGaussianBlur stdDeviation="5" in="shadowOffsetInner" result="shadowGaussian" />
      <feComposite in2="shadowGaussian" operator="atop" in="SourceAlpha" result="shadowComposite" />
      <feColorMatrix type="matrix" values="0 0 0 0 1  0 0 0 0 0.15294117647058825  0 0 0 0 0.15294117647058825  0 0 0 0.7058823529411764 0  " in="shadowComposite" />
    </filter>
    <g id="widget88">
      <path d="M 18.665024630541893 68.01030927835052  C 18.915267658946163 49.799394965393105  15.946059973247372 21.159712434970345  13 6.994236311239149  C 11.723606492097872 0.8569811552475812  9.829971181556175 1  9.829971181556175 1  C 9.829971181556175 1  7.6116269187778585 -2.063471182199237  5.507204610950964 9.011527377521588  C 3.2366341982104245 20.9609179334567  0.8245237818985629 48.908505685127125  1 68.01030927835052  C 1.2964023917514282 100.27576572057023  9.581196581196593 125.50436161776372  9.581196581196593 125.50436161776372  C 9.581196581196593 125.50436161776372  18.220381161121566 100.36831011083632  18.665024630541893 68.01030927835052  Z " fill-rule="nonzero" fill="url(#LinearGradient84)" stroke="none" transform="matrix(1 0 0 1 389 359 )" />
    </g>
  </defs>
  <g transform="matrix(1 0 0 1 -384 -354 )">
    <use xlink:href="#widget88" filter="url(#filter87)" />
    <use xlink:href="#widget88" />
  </g>
</svg>