<?xml version="1.0" encoding="utf-8"?>
<svg version="1.1" xmlns:xlink="http://www.w3.org/1999/xlink" width="555px" height="132px" xmlns="http://www.w3.org/2000/svg">
  <defs>
    <mask fill="white" id="clip50">
      <path d="M 0 132  L 0.7142857142857224 0.8571428571428328  C 0.7142857142857224 0.8571428571428328  36.587987441206025 -0.14849710755953538  58.60975609756099 16  C 81.61081110893792 32.86660486349501  81.42519685039372 59.38582677165357  81.42519685039372 59.38582677165357  C 81.42519685039372 59.38582677165357  98 46.77165354330714  123 59.38582677165357  C 148 72  148.3543307086614 90.09448818897636  148.3543307086614 90.09448818897636  C 148.3543307086614 90.09448818897636  165 83.18897637795271  183 90.09448818897636  C 201 97  204.25984251968498 113.71653543307082  204.25984251968498 113.71653543307082  C 204.25984251968498 113.71653543307082  232.36704143792127 110.16950657081952  253 90.09448818897636  C 272.6006954838966 71.0238192419007  276.7007874015748 44.42519685039372  276.7007874015748 44.42519685039372  C 276.7007874015748 44.42519685039372  282.21679595802647 71.17015467160559  303 90.09448818897636  C 325.3994192961785 110.49048105418717  354.6535433070866 113.71653543307082  354.6535433070866 113.71653543307082  C 354.6535433070866 113.71653543307082  355.9657517112643 97.25606337186196  373 90.09448818897636  C 385.7976227942554 84.71408417878729  407.40944881889766 90.09448818897636  407.40944881889766 90.09448818897636  C 407.40944881889766 90.09448818897636  414.6420044014566 67.98425196850394  433 59.38582677165357  C 451.62319609697784 50.66318830567394  473.5511811023622 59.38582677165357  473.5511811023622 59.38582677165357  C 473.5511811023622 59.38582677165357  486 28  503 16  C 520 4  554.6535433070866 0.8571428571428328  554.6535433070866 0.8571428571428328  L 554.6535433070866 131.1851851851851  L 0 132  Z " fill-rule="evenodd" />
    </mask>
  </defs>
  <g transform="matrix(1 0 0 1 -117 -454 )">
    <path d="M 0 132  L 0.7142857142857224 0.8571428571428328  C 0.7142857142857224 0.8571428571428328  36.587987441206025 -0.14849710755953538  58.60975609756099 16  C 81.61081110893792 32.86660486349501  81.42519685039372 59.38582677165357  81.42519685039372 59.38582677165357  C 81.42519685039372 59.38582677165357  98 46.77165354330714  123 59.38582677165357  C 148 72  148.3543307086614 90.09448818897636  148.3543307086614 90.09448818897636  C 148.3543307086614 90.09448818897636  165 83.18897637795271  183 90.09448818897636  C 201 97  204.25984251968498 113.71653543307082  204.25984251968498 113.71653543307082  C 204.25984251968498 113.71653543307082  232.36704143792127 110.16950657081952  253 90.09448818897636  C 272.6006954838966 71.0238192419007  276.7007874015748 44.42519685039372  276.7007874015748 44.42519685039372  C 276.7007874015748 44.42519685039372  282.21679595802647 71.17015467160559  303 90.09448818897636  C 325.3994192961785 110.49048105418717  354.6535433070866 113.71653543307082  354.6535433070866 113.71653543307082  C 354.6535433070866 113.71653543307082  355.9657517112643 97.25606337186196  373 90.09448818897636  C 385.7976227942554 84.71408417878729  407.40944881889766 90.09448818897636  407.40944881889766 90.09448818897636  C 407.40944881889766 90.09448818897636  414.6420044014566 67.98425196850394  433 59.38582677165357  C 451.62319609697784 50.66318830567394  473.5511811023622 59.38582677165357  473.5511811023622 59.38582677165357  C 473.5511811023622 59.38582677165357  486 28  503 16  C 520 4  554.6535433070866 0.8571428571428328  554.6535433070866 0.8571428571428328  L 554.6535433070866 131.1851851851851  L 0 132  Z " fill-rule="nonzero" fill="#ffe8c4" stroke="none" transform="matrix(1 0 0 1 117 454 )" />
    <path d="M 0 132  L 0.7142857142857224 0.8571428571428328  C 0.7142857142857224 0.8571428571428328  36.587987441206025 -0.14849710755953538  58.60975609756099 16  C 81.61081110893792 32.86660486349501  81.42519685039372 59.38582677165357  81.42519685039372 59.38582677165357  C 81.42519685039372 59.38582677165357  98 46.77165354330714  123 59.38582677165357  C 148 72  148.3543307086614 90.09448818897636  148.3543307086614 90.09448818897636  C 148.3543307086614 90.09448818897636  165 83.18897637795271  183 90.09448818897636  C 201 97  204.25984251968498 113.71653543307082  204.25984251968498 113.71653543307082  C 204.25984251968498 113.71653543307082  232.36704143792127 110.16950657081952  253 90.09448818897636  C 272.6006954838966 71.0238192419007  276.7007874015748 44.42519685039372  276.7007874015748 44.42519685039372  C 276.7007874015748 44.42519685039372  282.21679595802647 71.17015467160559  303 90.09448818897636  C 325.3994192961785 110.49048105418717  354.6535433070866 113.71653543307082  354.6535433070866 113.71653543307082  C 354.6535433070866 113.71653543307082  355.9657517112643 97.25606337186196  373 90.09448818897636  C 385.7976227942554 84.71408417878729  407.40944881889766 90.09448818897636  407.40944881889766 90.09448818897636  C 407.40944881889766 90.09448818897636  414.6420044014566 67.98425196850394  433 59.38582677165357  C 451.62319609697784 50.66318830567394  473.5511811023622 59.38582677165357  473.5511811023622 59.38582677165357  C 473.5511811023622 59.38582677165357  486 28  503 16  C 520 4  554.6535433070866 0.8571428571428328  554.6535433070866 0.8571428571428328  L 554.6535433070866 131.1851851851851  L 0 132  Z " stroke-width="2" stroke="#797979" fill="none" transform="matrix(1 0 0 1 117 454 )" mask="url(#clip50)" />
  </g>
</svg>