<?xml version="1.0" encoding="utf-8"?>
<svg version="1.1" xmlns:xlink="http://www.w3.org/1999/xlink" width="61px" height="141px" xmlns="http://www.w3.org/2000/svg">
  <defs>
    <linearGradient gradientUnits="userSpaceOnUse" x1="6.944589473684208" y1="64.55680000000005" x2="49.60421052631577" y2="64.55680000000005" id="LinearGradient57">
      <stop id="Stop58" stop-color="#f54b47" offset="0" />
      <stop id="Stop59" stop-color="#621a1a" offset="1" />
    </linearGradient>
    <filter x="302px" y="360px" width="61px" height="141px" filterUnits="userSpaceOnUse" id="filter60">
      <feOffset dx="5" dy="5" in="SourceAlpha" result="shadowOffsetInner" />
      <feGaussianBlur stdDeviation="2.5" in="shadowOffsetInner" result="shadowGaussian" />
      <feComposite in2="shadowGaussian" operator="atop" in="SourceAlpha" result="shadowComposite" />
      <feColorMatrix type="matrix" values="0 0 0 0 0  0 0 0 0 0  0 0 0 0 0  0 0 0 0.34901960784313724 0  " in="shadowComposite" />
    </filter>
    <g id="widget61">
      <path d="M 51 58.333333333333314  C 51 58.333333333333314  47.38562091503269 43.986928104575156  46.42483660130716 30  C 45.46405228758164 16.013071895424844  44.42483660130716 0  44.42483660130716 0  C 44.42483660130716 0  32.06237816764133 6.327485380116968  26 12  C 19.937621832358673 17.67251461988303  13 28.333333333333314  13 28.333333333333314  C 13 28.333333333333314  0.7272727272726911 49.090909090909065  1 74  C 1.272727272727309 98.90909090909093  3.754276827371711 125.22550544323485  8 130  C 12.245723172628288 134.77449455676515  13.424535385541674 113.3392057962289  30 89  C 39.72587456356894 74.7186469244109  51 58.333333333333314  51 58.333333333333314  Z " fill-rule="nonzero" fill="url(#LinearGradient57)" stroke="none" transform="matrix(1 0 0 1 302 360 )" />
    </g>
  </defs>
  <g transform="matrix(1 0 0 1 -302 -360 )">
    <use xlink:href="#widget61" filter="url(#filter60)" />
    <use xlink:href="#widget61" />
  </g>
</svg>