<?xml version="1.0" encoding="utf-8"?>
<svg version="1.1" xmlns:xlink="http://www.w3.org/1999/xlink" width="11px" height="13px" xmlns="http://www.w3.org/2000/svg">
  <g transform="matrix(1 0 0 1 -560 -295 )">
    <path d="M 7.4240883977900625 5.05547412335099  C 5.76758160560566 3.1577964317200764  5.722430939226508 0.07182320441989058  5.722430939226508 0.07182320441989058  C 5.722430939226508 0.07182320441989058  5.299055326024866 2.7883743529569367  3.567142857142846 4.7565597667638375  C 2.077922926383972 6.448943763261178  0.21476190476190593 6.999028182701644  0.21476190476190593 6.999028182701644  C 0.21476190476190593 6.999028182701644  2.2210113713649795 6.7441022043263255  3.777679558011039 8.280189423835832  C 5.537116885881571 10.016364940271956  5.94 12.824106438155368  5.94 12.824106438155368  C 5.94 12.824106438155368  5.920705770755188 9.938328498865102  7.4240883977900625 8.280189423835832  C 9.023228100482827 6.516436151859218  10.848095238095222 7.346452866861034  10.848095238095222 7.346452866861034  C 10.848095238095222 7.346452866861034  9.04842694735682 6.916300196454025  7.4240883977900625 5.05547412335099  Z " fill-rule="nonzero" fill="#f6c87f" stroke="none" transform="matrix(1 0 0 1 560 295 )" />
  </g>
</svg>