<?xml version="1.0" encoding="utf-8"?>
<svg version="1.1" xmlns:xlink="http://www.w3.org/1999/xlink" width="22px" height="25px" xmlns="http://www.w3.org/2000/svg">
  <g transform="matrix(1 0 0 1 -178 -370 )">
    <path d="M 14.848176795580125 9.722065621828827  C 11.53516321121132 6.072685445615532  11.444861878453017 0.13812154696132806  11.444861878453017 0.13812154696132806  C 11.444861878453017 0.13812154696132806  10.598110652049732 5.362258371071031  7.134285714285692 9.147230320699688  C 4.155845852767944 12.401814929348419  0.42952380952381186 13.459669582118547  0.42952380952381186 13.459669582118547  C 0.42952380952381186 13.459669582118547  4.442022742729959 12.969427316012164  7.555359116022078 15.923441199684293  C 11.074233771763142 19.26224026975376  11.88 24.661743150298783  11.88 24.661743150298783  C 11.88 24.661743150298783  11.841411541510375 19.112170190125198  14.848176795580125 15.923441199684293  C 18.046456200965654 12.53160798434465  21.696190476190445 14.127793974732757  21.696190476190445 14.127793974732757  C 21.696190476190445 14.127793974732757  18.09685389471364 13.300577300873126  14.848176795580125 9.722065621828827  Z " fill-rule="nonzero" fill="#f6c87f" stroke="none" transform="matrix(1 0 0 1 178 370 )" />
  </g>
</svg>