<?xml version="1.0" encoding="utf-8"?>
<svg version="1.1" xmlns:xlink="http://www.w3.org/1999/xlink" width="321px" height="30px" xmlns="http://www.w3.org/2000/svg">
  <g transform="matrix(1 0 0 1 -140 -17 )">
    <path d="M 141 22  A 4 4 0 0 1 145 18 L 456 18  A 4 4 0 0 1 460 22 L 460 42  A 4 4 0 0 1 456 46 L 145 46  A 4 4 0 0 1 141 42 L 141 22  Z " fill-rule="nonzero" fill="#ffffff" stroke="none" />
    <path d="M 140.5 22  A 4.5 4.5 0 0 1 145 17.5 L 456 17.5  A 4.5 4.5 0 0 1 460.5 22 L 460.5 42  A 4.5 4.5 0 0 1 456 46.5 L 145 46.5  A 4.5 4.5 0 0 1 140.5 42 L 140.5 22  Z " stroke-width="1" stroke="#797979" fill="none" stroke-opacity="0.2980392156862745" />
  </g>
</svg>