<?xml version="1.0" encoding="utf-8"?>
<svg version="1.1" xmlns:xlink="http://www.w3.org/1999/xlink" width="140px" height="24px" xmlns="http://www.w3.org/2000/svg">
  <g transform="matrix(1 0 0 1 -267 -836 )">
    <path d="M 268 840  A 3 3 0 0 1 271 837 L 403 837  A 3 3 0 0 1 406 840 L 406 856  A 3 3 0 0 1 403 859 L 271 859  A 3 3 0 0 1 268 856 L 268 840  Z " fill-rule="nonzero" fill="#ffffff" stroke="none" />
    <path d="M 267.5 840  A 3.5 3.5 0 0 1 271 836.5 L 403 836.5  A 3.5 3.5 0 0 1 406.5 840 L 406.5 856  A 3.5 3.5 0 0 1 403 859.5 L 271 859.5  A 3.5 3.5 0 0 1 267.5 856 L 267.5 840  Z " stroke-width="1" stroke="#a4a4a4" fill="none" stroke-opacity="0.44313725490196076" />
  </g>
</svg>