<?xml version="1.0" encoding="utf-8"?>
<svg version="1.1" xmlns:xlink="http://www.w3.org/1999/xlink" width="214px" height="54px" xmlns="http://www.w3.org/2000/svg">
  <g transform="matrix(1 0 0 1 -1105 -489 )">
    <path d="M 1106 497  A 7 7 0 0 1 1113 490 L 1311 490  A 7 7 0 0 1 1318 497 L 1318 535  A 7 7 0 0 1 1311 542 L 1113 542  A 7 7 0 0 1 1106 535 L 1106 497  Z " fill-rule="nonzero" fill="#ffffff" stroke="none" fill-opacity="0.9921568627450981" />
    <path d="M 1105.5 497  A 7.5 7.5 0 0 1 1113 489.5 L 1311 489.5  A 7.5 7.5 0 0 1 1318.5 497 L 1318.5 535  A 7.5 7.5 0 0 1 1311 542.5 L 1113 542.5  A 7.5 7.5 0 0 1 1105.5 535 L 1105.5 497  Z " stroke-width="1" stroke="#797979" fill="none" stroke-opacity="0.1843137254901961" />
  </g>
</svg>