<svg width="16" height="16" viewBox="0 0 16 16" fill="none" xmlns="http://www.w3.org/2000/svg">
<path d="M7.3335 8.66667C7.3335 8.29848 7.63197 8 8.00016 8V8C8.36835 8 8.66683 8.29848 8.66683 8.66667V11.3333C8.66683 11.7015 8.36835 12 8.00016 12V12C7.63197 12 7.3335 11.7015 7.3335 11.3333V8.66667Z" fill="#BCBDC0"/>
<path d="M13.7793 5.33096L13.7814 5.34165L13.7839 5.35225C13.8161 5.48779 13.8334 5.63028 13.8334 5.77781C13.8334 6.40761 13.5185 6.94977 13.0601 7.24902L12.8334 7.397V7.6677V11.3333C12.8334 12.53 11.8634 13.5 10.6667 13.5H5.33341C4.1368 13.5 3.16675 12.53 3.16675 11.3333V7.6677V7.397L2.94007 7.24902C2.48169 6.94977 2.16675 6.40761 2.16675 5.77781C2.16675 5.65748 2.17824 5.54054 2.19994 5.42802L2.31462 4.83333H2.31247L2.42949 4.22908C2.62785 3.20483 3.47368 2.5 4.4209 2.5H11.5762C12.5246 2.5 13.3711 3.20651 13.5683 4.23237L13.7793 5.33096Z" stroke="#565960"/>
</svg>
