<svg width="16" height="16" viewBox="0 0 16 16" fill="none" xmlns="http://www.w3.org/2000/svg">
<g clip-path="url(#clip0_1054_245906)">
<path d="M7.66658 5.49996H7.82826L7.95933 5.4053L11.8453 2.59873C12.3964 2.20071 13.1666 2.59449 13.1666 3.2743V12.7256C13.1666 13.4054 12.3964 13.7992 11.8453 13.4012L7.95933 10.5946L7.82826 10.5H7.66659L6.66659 10.5H6.16658V11V12.8C6.16658 13.1866 5.85318 13.5 5.46658 13.5H5.19992C4.81332 13.5 4.49992 13.1866 4.49992 12.8V10.8061V10.4691L4.18753 10.3427C3.39257 10.0209 2.83325 9.24179 2.83325 8.33329V7.66663C2.83325 6.47001 3.8033 5.49996 4.99992 5.49996H7.66658Z" stroke="#565960"/>
<path d="M11 6.66663L11 9.33329" stroke="#BCBDC0" stroke-width="1.33333" stroke-linecap="round"/>
</g>
<defs>
<clipPath id="clip0_1054_245906">
<rect width="16" height="16" fill="white"/>
</clipPath>
</defs>
</svg>
