<?xml version="1.0" encoding="utf-8"?>
<svg version="1.1" xmlns:xlink="http://www.w3.org/1999/xlink" width="96px" height="90px" xmlns="http://www.w3.org/2000/svg">
  <defs>
    <linearGradient gradientUnits="userSpaceOnUse" x1="96" y1="9.992007221626409E-15" x2="0" y2="86.05660377358491" id="LinearGradient57">
      <stop id="Stop58" stop-color="#c1d6ff" offset="0" />
      <stop id="Stop59" stop-color="#e5eafd" stop-opacity="0.6980392156862745" offset="1" />
    </linearGradient>
  </defs>
  <g transform="matrix(1 0 0 1 -829 -67 )">
    <path d="M 1.3404255319148888 54.87877288471054  L 27.581560283687963 0.6976744186046562  L 77.936170212766 0.6976744186046562  L 65.17021276595744 32  L 92.1205673758866 32  C 92.1205673758866 32  94.72242311014338 31.504509403678814  95 34.11375228112863  C 95.33387187240612 37.25217207359215  92.1205673758866 40.54116609721151  92.1205673758866 40.54116609721151  L 43.18439716312059 89.02028698664029  L 21.198581560283742 89.02028698664029  L 27.581560283687963 61  L 7.51658767772517 61  C 7.51658767772517 61  4.355450236966931 60.87622616554614  1.3404255319148888 59.884272015871275  C -1.6745991731371532 58.892317866196414  1.3404255319148888 54.87877288471054  1.3404255319148888 54.87877288471054  Z " fill-rule="nonzero" fill="url(#LinearGradient57)" stroke="none" transform="matrix(1 0 0 1 829 67 )" />
  </g>
</svg>