<?xml version="1.0" encoding="utf-8"?>
<svg version="1.1" xmlns:xlink="http://www.w3.org/1999/xlink" width="17px" height="17px" xmlns="http://www.w3.org/2000/svg">
  <g transform="matrix(1 0 0 1 -310 -578 )">
    <path d="M 318.5 579  C 322.7 579  326 582.3  326 586.5  C 326 590.7  322.7 594  318.5 594  C 314.3 594  311 590.7  311 586.5  C 311 582.3  314.3 579  318.5 579  Z " fill-rule="nonzero" fill="#ffffff" stroke="none" />
    <path d="M 318.5 579  C 322.7 579  326 582.3  326 586.5  C 326 590.7  322.7 594  318.5 594  C 314.3 594  311 590.7  311 586.5  C 311 582.3  314.3 579  318.5 579  Z " stroke-width="2" stroke="#797979" fill="none" />
  </g>
</svg>