<?xml version="1.0" encoding="utf-8"?>
<svg version="1.1" xmlns:xlink="http://www.w3.org/1999/xlink" width="12px" height="12px" xmlns="http://www.w3.org/2000/svg">
  <g transform="matrix(1 0 0 1 -354 -346 )">
    <path d="M 360 346  C 363.36 346  366 348.64  366 352  C 366 355.36  363.36 358  360 358  C 356.64 358  354 355.36  354 352  C 354 348.64  356.64 346  360 346  Z " fill-rule="nonzero" fill="#ffffff" stroke="none" />
    <path d="M 360 346.5  C 363.08 346.5  365.5 348.92  365.5 352  C 365.5 355.08  363.08 357.5  360 357.5  C 356.92 357.5  354.5 355.08  354.5 352  C 354.5 348.92  356.92 346.5  360 346.5  Z " stroke-width="1" stroke="#a4a4a4" fill="none" />
  </g>
</svg>