<?xml version="1.0" encoding="utf-8"?>
<svg version="1.1" xmlns:xlink="http://www.w3.org/1999/xlink" width="26px" height="26px" xmlns="http://www.w3.org/2000/svg">
  <g transform="matrix(1 0 0 1 -274 -390 )">
    <path d="M 287 391  C 293.72 391  299 396.28  299 403  C 299 409.72  293.72 415  287 415  C 280.28 415  275 409.72  275 403  C 275 396.28  280.28 391  287 391  Z " fill-rule="nonzero" fill="#ffffff" stroke="none" />
    <path d="M 287 391  C 293.72 391  299 396.28  299 403  C 299 409.72  293.72 415  287 415  C 280.28 415  275 409.72  275 403  C 275 396.28  280.28 391  287 391  Z " stroke-width="2" stroke="#a4a4a4" fill="none" />
  </g>
</svg>