<?xml version="1.0" encoding="utf-8"?>
<svg version="1.1" xmlns:xlink="http://www.w3.org/1999/xlink" width="8px" height="8px" xmlns="http://www.w3.org/2000/svg">
  <g transform="matrix(1 0 0 1 -346 -753 )">
    <path d="M 7.811447811447811 5.979797979797979  C 7.937149270482604 6.105499438832771  8 6.2581369248035905  8 6.437710437710438  C 8 6.617283950617285  7.937149270482604 6.769921436588103  7.811447811447811 6.895622895622895  L 6.895622895622895 7.811447811447811  C 6.769921436588104 7.937149270482604  6.617283950617284 8  6.437710437710438 8  C 6.258136924803592 8  6.105499438832773 7.937149270482604  5.97979797979798 7.811447811447811  L 4 5.831649831649832  L 2.0202020202020203 7.811447811447811  C 1.894500561167228 7.937149270482604  1.7418630751964086 8  1.5622895622895623 8  C 1.3827160493827162 8  1.230078563411897 7.937149270482604  1.1043771043771045 7.811447811447811  L 0.18855218855218855 6.895622895622895  C 0.06285072951739624 6.769921436588103  0 6.617283950617285  0 6.437710437710438  C 0 6.2581369248035905  0.06285072951739624 6.105499438832771  0.18855218855218855 5.979797979797979  L 2.1683501683501682 4  L 0.18855218855218855 2.02020202020202  C 0.06285072951739624 1.8945005611672272  0 1.7418630751964086  0 1.5622895622895623  C 0 1.382716049382716  0.06285072951739624 1.2300785634118956  0.18855218855218855 1.1043771043771047  L 1.1043771043771045 0.18855218855218858  C 1.230078563411897 0.0628507295173959  1.3827160493827162 0  1.5622895622895623 0  C 1.7418630751964086 0  1.894500561167228 0.0628507295173959  2.0202020202020203 0.18855218855218858  L 4 2.1683501683501687  L 5.97979797979798 0.18855218855218858  C 6.105499438832773 0.0628507295173959  6.258136924803592 0  6.437710437710438 0  C 6.617283950617284 0  6.769921436588104 0.0628507295173959  6.895622895622895 0.18855218855218858  L 7.811447811447811 1.1043771043771047  C 7.937149270482604 1.2300785634118956  8 1.382716049382716  8 1.5622895622895623  C 8 1.7418630751964086  7.937149270482604 1.8945005611672272  7.811447811447811 2.02020202020202  L 5.831649831649831 4  L 7.811447811447811 5.979797979797979  Z " fill-rule="nonzero" fill="#000000" stroke="none" transform="matrix(1 0 0 1 346 753 )" />
  </g>
</svg>