<?xml version="1.0" encoding="utf-8"?>
<svg version="1.1" xmlns:xlink="http://www.w3.org/1999/xlink" width="84px" height="16px" xmlns="http://www.w3.org/2000/svg">
  <g transform="matrix(1 0 0 1 -215 -791 )">
    <path d="M 216 795  A 3 3 0 0 1 219 792 L 295 792  A 3 3 0 0 1 298 795 L 298 803  A 3 3 0 0 1 295 806 L 219 806  A 3 3 0 0 1 216 803 L 216 795  Z " fill-rule="nonzero" fill="#ffffff" stroke="none" />
    <path d="M 215.5 795  A 3.5 3.5 0 0 1 219 791.5 L 295 791.5  A 3.5 3.5 0 0 1 298.5 795 L 298.5 803  A 3.5 3.5 0 0 1 295 806.5 L 219 806.5  A 3.5 3.5 0 0 1 215.5 803 L 215.5 795  Z " stroke-width="1" stroke="#c40000" fill="none" stroke-opacity="0.7058823529411765" />
  </g>
</svg>