<?xml version="1.0" encoding="utf-8"?>
<svg version="1.1" xmlns:xlink="http://www.w3.org/1999/xlink" width="84px" height="16px" xmlns="http://www.w3.org/2000/svg">
  <defs>
    <mask fill="white" id="clip33">
      <path d="M 0 12  L 0 4  C 0 1.759999999999991  1.759999999999991 0  4 0  L 46.00000000000001 0  L 80 0  C 82.24000000000001 0  84 1.759999999999991  84 4  L 84 12  C 84 14.240000000000009  82.24000000000001 16  80 16  L 4 16  C 1.759999999999991 16  0 14.240000000000009  0 12  Z " fill-rule="evenodd" />
    </mask>
  </defs>
  <g transform="matrix(1 0 0 1 -214 -433 )">
    <path d="M 0 12  L 0 4  C 0 1.759999999999991  1.759999999999991 0  4 0  L 46.00000000000001 0  L 80 0  C 82.24000000000001 0  84 1.759999999999991  84 4  L 84 12  C 84 14.240000000000009  82.24000000000001 16  80 16  L 4 16  C 1.759999999999991 16  0 14.240000000000009  0 12  Z " fill-rule="nonzero" fill="#ffffff" stroke="none" transform="matrix(1 0 0 1 214 433 )" />
    <path d="M 0 12  L 0 4  C 0 1.759999999999991  1.759999999999991 0  4 0  L 46.00000000000001 0  L 80 0  C 82.24000000000001 0  84 1.759999999999991  84 4  L 84 12  C 84 14.240000000000009  82.24000000000001 16  80 16  L 4 16  C 1.759999999999991 16  0 14.240000000000009  0 12  Z " stroke-width="2" stroke="#c40000" fill="none" stroke-opacity="0.7058823529411765" transform="matrix(1 0 0 1 214 433 )" mask="url(#clip33)" />
  </g>
</svg>