<?xml version="1.0" encoding="utf-8"?>
<svg version="1.1" xmlns:xlink="http://www.w3.org/1999/xlink" width="12px" height="12px" viewBox="340 376.5  12 12" xmlns="http://www.w3.org/2000/svg">
  <path d="M 346 376.5  C 349.36 376.5  352 379.14  352 382.5  C 352 385.86  349.36 388.5  346 388.5  C 342.64 388.5  340 385.86  340 382.5  C 340 379.14  342.64 376.5  346 376.5  Z " fill-rule="nonzero" fill="#f0f0f0" stroke="none" />
  <path d="M 346 377  C 349.08 377  351.5 379.42  351.5 382.5  C 351.5 385.58  349.08 388  346 388  C 342.92 388  340.5 385.58  340.5 382.5  C 340.5 379.42  342.92 377  346 377  Z " stroke-width="1" stroke="#797979" fill="none" />
  <path d="M 346 385.5  C 344.32 385.5  343 384.18  343 382.5  C 343 380.82  344.32 379.5  346 379.5  C 347.68 379.5  349 380.82  349 382.5  C 349 384.18  347.68 385.5  346 385.5  " fill-rule="nonzero" fill="#797979" stroke="none" />
</svg>