<?xml version="1.0" encoding="utf-8"?>
<svg version="1.1" xmlns:xlink="http://www.w3.org/1999/xlink" width="12px" height="12px" viewBox="340 421.5  12 12" xmlns="http://www.w3.org/2000/svg">
  <path d="M 346 421.5  C 349.36 421.5  352 424.14  352 427.5  C 352 430.86  349.36 433.5  346 433.5  C 342.64 433.5  340 430.86  340 427.5  C 340 424.14  342.64 421.5  346 421.5  Z " fill-rule="nonzero" fill="#f0f0f0" stroke="none" />
  <path d="M 346 422  C 349.08 422  351.5 424.42  351.5 427.5  C 351.5 430.58  349.08 433  346 433  C 342.92 433  340.5 430.58  340.5 427.5  C 340.5 424.42  342.92 422  346 422  Z " stroke-width="1" stroke="#797979" fill="none" />
  <path d="M 346 430.5  C 344.32 430.5  343 429.18  343 427.5  C 343 425.82  344.32 424.5  346 424.5  C 347.68 424.5  349 425.82  349 427.5  C 349 429.18  347.68 430.5  346 430.5  " fill-rule="nonzero" fill="#797979" stroke="none" />
</svg>