<?xml version="1.0" encoding="utf-8"?>
<svg version="1.1" xmlns:xlink="http://www.w3.org/1999/xlink" width="12px" height="12px" viewBox="340 474.5  12 12" xmlns="http://www.w3.org/2000/svg">
  <path d="M 346 474.5  C 349.36 474.5  352 477.14  352 480.5  C 352 483.86  349.36 486.5  346 486.5  C 342.64 486.5  340 483.86  340 480.5  C 340 477.14  342.64 474.5  346 474.5  Z " fill-rule="nonzero" fill="#f0f0f0" stroke="none" />
  <path d="M 346 475  C 349.08 475  351.5 477.42  351.5 480.5  C 351.5 483.58  349.08 486  346 486  C 342.92 486  340.5 483.58  340.5 480.5  C 340.5 477.42  342.92 475  346 475  Z " stroke-width="1" stroke="#797979" fill="none" />
  <path d="M 346 483.5  C 344.32 483.5  343 482.18  343 480.5  C 343 478.82  344.32 477.5  346 477.5  C 347.68 477.5  349 478.82  349 480.5  C 349 482.18  347.68 483.5  346 483.5  " fill-rule="nonzero" fill="#797979" stroke="none" />
</svg>