<?xml version="1.0" encoding="utf-8"?>
<svg version="1.1" xmlns:xlink="http://www.w3.org/1999/xlink" width="117px" height="94px" xmlns="http://www.w3.org/2000/svg">
  <defs>
    <mask fill="white" id="clip85">
      <path d="M 58.5 94  C 48.427631633370694 94  39.01887266308542 92.04509368712331  30.817810878271807 88.57241141593028  L 14.835372398574167 93.94954738334351  L 15.017784245583089 78.72669171244328  C 5.647163173210338 70.41886221680798  0 59.328117982858274  0 47  C 0 20.679999999999975  25.73999999999996 0  58.5 0  C 91.26000000000005 0  117 20.679999999999975  117 47  C 117 73.32000000000002  91.26000000000005 94  58.5 94  Z " fill-rule="evenodd" />
    </mask>
  </defs>
  <g transform="matrix(1 0 0 1 -371 -460 )">
    <path d="M 58.5 94  C 48.427631633370694 94  39.01887266308542 92.04509368712331  30.817810878271807 88.57241141593028  L 14.835372398574167 93.94954738334351  L 15.017784245583089 78.72669171244328  C 5.647163173210338 70.41886221680798  0 59.328117982858274  0 47  C 0 20.679999999999975  25.73999999999996 0  58.5 0  C 91.26000000000005 0  117 20.679999999999975  117 47  C 117 73.32000000000002  91.26000000000005 94  58.5 94  Z " fill-rule="nonzero" fill="#ffffff" stroke="none" transform="matrix(1 0 0 1 371 460 )" />
    <path d="M 58.5 94  C 48.427631633370694 94  39.01887266308542 92.04509368712331  30.817810878271807 88.57241141593028  L 14.835372398574167 93.94954738334351  L 15.017784245583089 78.72669171244328  C 5.647163173210338 70.41886221680798  0 59.328117982858274  0 47  C 0 20.679999999999975  25.73999999999996 0  58.5 0  C 91.26000000000005 0  117 20.679999999999975  117 47  C 117 73.32000000000002  91.26000000000005 94  58.5 94  Z " stroke-width="2" stroke="#797979" fill="none" transform="matrix(1 0 0 1 371 460 )" mask="url(#clip85)" />
  </g>
</svg>