<?xml version="1.0" encoding="utf-8"?>
<svg version="1.1" xmlns:xlink="http://www.w3.org/1999/xlink" width="40px" height="50px" xmlns="http://www.w3.org/2000/svg">
  <defs>
    <filter x="6px" y="198px" width="40px" height="50px" filterUnits="userSpaceOnUse" id="filter98">
      <feOffset dx="1" dy="1" in="SourceAlpha" result="shadowOffsetInner" />
      <feGaussianBlur stdDeviation="2.5" in="shadowOffsetInner" result="shadowGaussian" />
      <feComposite in2="shadowGaussian" operator="atop" in="SourceAlpha" result="shadowComposite" />
      <feColorMatrix type="matrix" values="0 0 0 0 0  0 0 0 0 0  0 0 0 0 0  0 0 0 0.6980392156862745 0  " in="shadowComposite" />
    </filter>
    <g id="widget99">
      <path d="M 25 241.0369284683536  C 19.2 231.40734059590991  10.5 225.6295878724437  10.5 216  C 10.5 210.9857142857143  13.4 202.5  25 202.5  C 36.6 202.5  39.5 210.9857142857143  39.5 216  C 39.5 225.6295878724437  30.8 231.40734059590991  25 241.0369284683536  Z " fill-rule="nonzero" fill="#f70000" stroke="none" />
      <path d="M 25 242  C 19 232  10 226  10 216  C 10 210.8  13 202  25 202  C 37 202  40 210.8  40 216  C 40 226  31 232  25 242  Z M 25 240.0738569367072  C 30.6 230.8146811918198  39 225.2591757448874  39 216  C 39 211.17142857142858  36.2 203  25 203  C 13.8 203  11 211.17142857142858  11 216  C 11 225.2591757448874  19.4 230.8146811918198  25 240.0738569367072  Z " fill-rule="nonzero" fill="#ffffff" stroke="none" />
    </g>
  </defs>
  <g transform="matrix(1 0 0 1 -6 -198 )">
    <use xlink:href="#widget99" filter="url(#filter98)" />
    <use xlink:href="#widget99" />
  </g>
</svg>