<?xml version="1.0" encoding="utf-8"?>
<svg version="1.1" xmlns:xlink="http://www.w3.org/1999/xlink" width="18px" height="18px" preserveAspectRatio="xMinYMid meet" viewBox="1079 7053  18 16" xmlns="http://www.w3.org/2000/svg">
  <path d="M 287.5 6878  L 287.5 6974  A 3 3 0 0 1 290.5 6977 A 3 3 0 0 1 287.5 6980 L 287.5 6984  A 5 5 0 0 0 292 6989.5 L 639 6989.5  A 3 3 0 0 1 642 6986.5 A 3 3 0 0 1 645 6989.5 L 1083 6989.5  A 5 5 0 0 1 1088.5 6994.5 L 1088.5 7061  " stroke-width="1" stroke="#f70000" fill="none" />
  <path d="M 1093.1464466094067 7055.946446609407  L 1088.5 7060.5928932188135  L 1083.8535533905933 7055.946446609407  L 1083.1464466094067 7056.6535533905935  L 1088.1464466094067 7061.6535533905935  L 1088.5 7062.007106781187  L 1088.8535533905933 7061.6535533905935  L 1093.8535533905933 7056.6535533905935  L 1093.1464466094067 7055.946446609407  Z " fill-rule="nonzero" fill="#f70000" stroke="none" />
</svg>