<?xml version="1.0" encoding="utf-8"?>
<svg version="1.1" xmlns:xlink="http://www.w3.org/1999/xlink" width="26px" height="26px" xmlns="http://www.w3.org/2000/svg">
  <g transform="matrix(1 0 0 1 -17 -786 )">
    <path d="M 30 787  C 36.72 787  42 792.28  42 799  C 42 805.72  36.72 811  30 811  C 23.28 811  18 805.72  18 799  C 18 792.28  23.28 787  30 787  Z " fill-rule="nonzero" fill="#ffffff" stroke="none" fill-opacity="0" />
    <path d="M 30 787  C 36.72 787  42 792.28  42 799  C 42 805.72  36.72 811  30 811  C 23.28 811  18 805.72  18 799  C 18 792.28  23.28 787  30 787  Z " stroke-width="2" stroke="#797979" fill="none" />
  </g>
</svg>