<?xml version="1.0" encoding="utf-8"?>
<svg version="1.1" xmlns:xlink="http://www.w3.org/1999/xlink" width="170px" height="192px" xmlns="http://www.w3.org/2000/svg">
  <defs>
    <mask fill="white" id="clip84">
      <path d="M 0 85  C 0 37.39999999999998  37.39999999999998 0  85 0  C 132.60000000000002 0  170 37.39999999999998  170 85  C 170 122.54264409661624  146.73476683160698 153.74022460185256  113.54942453860644 165.24761747192326  C 104.65935282822306 168.3303504120039  89.20000000000005 190.8  84.39999999999998 191  C 79.59999999999991 191.2  68.13599664420667 168.77962106615166  60.3635667449081 166.49918904956945  C 25.108580811329034 156.15537125915836  0 124.0015830129422  0 85  Z " fill-rule="evenodd" />
    </mask>
  </defs>
  <g transform="matrix(1 0 0 1 -502 -228 )">
    <path d="M 0 85  C 0 37.39999999999998  37.39999999999998 0  85 0  C 132.60000000000002 0  170 37.39999999999998  170 85  C 170 122.54264409661624  146.73476683160698 153.74022460185256  113.54942453860644 165.24761747192326  C 104.65935282822306 168.3303504120039  89.20000000000005 190.8  84.39999999999998 191  C 79.59999999999991 191.2  68.13599664420667 168.77962106615166  60.3635667449081 166.49918904956945  C 25.108580811329034 156.15537125915836  0 124.0015830129422  0 85  Z " fill-rule="nonzero" fill="#ffffff" stroke="none" transform="matrix(1 0 0 1 502 228 )" />
    <path d="M 0 85  C 0 37.39999999999998  37.39999999999998 0  85 0  C 132.60000000000002 0  170 37.39999999999998  170 85  C 170 122.54264409661624  146.73476683160698 153.74022460185256  113.54942453860644 165.24761747192326  C 104.65935282822306 168.3303504120039  89.20000000000005 190.8  84.39999999999998 191  C 79.59999999999991 191.2  68.13599664420667 168.77962106615166  60.3635667449081 166.49918904956945  C 25.108580811329034 156.15537125915836  0 124.0015830129422  0 85  Z " stroke-width="2" stroke="#797979" fill="none" transform="matrix(1 0 0 1 502 228 )" mask="url(#clip84)" />
  </g>
</svg>