<?xml version="1.0" encoding="utf-8"?>
<svg version="1.1" xmlns:xlink="http://www.w3.org/1999/xlink" width="8px" height="4px" xmlns="http://www.w3.org/2000/svg">
  <g transform="matrix(1 0 0 1 -50 -706 )">
    <path d="M 0.1484375 0.13194444444444464  C 0.049479166666666075 0.21990740740740655  0 0.32407407407407307  0 0.44444444444444464  C 0 0.5648148148148144  0.049479166666666075 0.668981481481481  0.1484375 0.7569444444444446  L 3.6484375 3.8680555555555554  C 3.747395833333333 3.9560185185185173  3.864583333333333 4  4 4  C 4.135416666666666 4  4.252604166666666 3.9560185185185173  4.3515625 3.8680555555555554  L 7.8515625 0.7569444444444446  C 7.950520833333333 0.668981481481481  8 0.5648148148148144  8 0.44444444444444464  C 8 0.32407407407407307  7.950520833333333 0.21990740740740655  7.8515625 0.13194444444444464  C 7.752604166666667 0.043981481481480955  7.635416666666667 0  7.5 0  L 0.5 0  C 0.36458333333333304 0  0.24739583333333304 0.043981481481480955  0.1484375 0.13194444444444464  Z " fill-rule="nonzero" fill="#60c092" stroke="none" transform="matrix(1 0 0 1 50 706 )" />
  </g>
</svg>