<?xml version="1.0" encoding="utf-8"?>
<svg version="1.1" xmlns:xlink="http://www.w3.org/1999/xlink" width="56px" height="16px" xmlns="http://www.w3.org/2000/svg">
  <g transform="matrix(1 0 0 1 -212 -724 )">
    <path d="M 213 728  A 3 3 0 0 1 216 725 L 264 725  A 3 3 0 0 1 267 728 L 267 736  A 3 3 0 0 1 264 739 L 216 739  A 3 3 0 0 1 213 736 L 213 728  Z " fill-rule="nonzero" fill="#ffedeb" stroke="none" fill-opacity="0" />
    <path d="M 212.5 728  A 3.5 3.5 0 0 1 216 724.5 L 264 724.5  A 3.5 3.5 0 0 1 267.5 728 L 267.5 736  A 3.5 3.5 0 0 1 264 739.5 L 216 739.5  A 3.5 3.5 0 0 1 212.5 736 L 212.5 728  Z " stroke-width="1" stroke="#6b6b6b" fill="none" stroke-opacity="0.09803921568627451" />
  </g>
</svg>