<?xml version="1.0" encoding="utf-8"?>
<svg version="1.1" xmlns:xlink="http://www.w3.org/1999/xlink" width="10px" height="51px" preserveAspectRatio="xMidYMin meet" viewBox="1082 514  8 51" xmlns="http://www.w3.org/2000/svg">
  <path d="M 25.5 605  L 25.5 524  A 5 5 0 0 1 30 519.5 L 191 519.5  A 3 3 0 0 1 194 516.5 A 3 3 0 0 1 197 519.5 L 637 519.5  A 3 3 0 0 1 640 516.5 A 3 3 0 0 1 643 519.5 L 1081 519.5  A 5 5 0 0 1 1086.5 524.5 L 1086.5 564  " stroke-width="1" stroke="#f70000" fill="none" />
  <path d="M 1091.1464466094067 558.9464466094067  L 1086.5 563.5928932188134  L 1081.8535533905933 558.9464466094067  L 1081.1464466094067 559.6535533905932  L 1086.1464466094067 564.6535533905932  L 1086.5 565.0071067811865  L 1086.8535533905933 564.6535533905932  L 1091.8535533905933 559.6535533905932  L 1091.1464466094067 558.9464466094067  Z " fill-rule="nonzero" fill="#f70000" stroke="none" />
</svg>