<?xml version="1.0" encoding="utf-8"?>
<svg version="1.1" xmlns:xlink="http://www.w3.org/1999/xlink" width="90px" height="120px" xmlns="http://www.w3.org/2000/svg">
  <g transform="matrix(1 0 0 1 -40 -25 )">
    <path d="M 85 25  C 110.2 25  130 51.4  130 85  C 130 118.60000000000001  110.2 145  85 145  C 59.8 145  40 118.60000000000001  40 85  C 40 51.4  59.8 25  85 25  Z " fill-rule="nonzero" fill="#ffffff" stroke="none" />
    <path d="M 85 25.5  C 109.92 25.5  129.5 51.67999999999999  129.5 85  C 129.5 118.32000000000001  109.92 144.5  85 144.5  C 60.08 144.5  40.5 118.32000000000001  40.5 85  C 40.5 51.67999999999999  60.08 25.5  85 25.5  Z " stroke-width="1" stroke="#797979" fill="none" />
  </g>
</svg>