<?xml version="1.0" encoding="utf-8"?>
<svg version="1.1" xmlns:xlink="http://www.w3.org/1999/xlink" width="42px" height="16px" xmlns="http://www.w3.org/2000/svg">
  <defs>
    <mask fill="white" id="clip48">
      <path d="M 0 12  L 0 4  C 0 1.759999999999991  0.8799999999999955 0  2 0  L 23.000000000000004 0  L 40 0  C 41.120000000000005 0  42 1.759999999999991  42 4  L 42 12  C 42 14.240000000000009  41.120000000000005 16  40 16  L 2 16  C 0.8799999999999955 16  0 14.240000000000009  0 12  Z " fill-rule="evenodd" />
    </mask>
  </defs>
  <g transform="matrix(1 0 0 1 -187 -890 )">
    <path d="M 0 12  L 0 4  C 0 1.759999999999991  0.8799999999999955 0  2 0  L 23.000000000000004 0  L 40 0  C 41.120000000000005 0  42 1.759999999999991  42 4  L 42 12  C 42 14.240000000000009  41.120000000000005 16  40 16  L 2 16  C 0.8799999999999955 16  0 14.240000000000009  0 12  Z " fill-rule="nonzero" fill="#ffffff" stroke="none" transform="matrix(1 0 0 1 187 890 )" />
    <path d="M 0 12  L 0 4  C 0 1.759999999999991  0.8799999999999955 0  2 0  L 23.000000000000004 0  L 40 0  C 41.120000000000005 0  42 1.759999999999991  42 4  L 42 12  C 42 14.240000000000009  41.120000000000005 16  40 16  L 2 16  C 0.8799999999999955 16  0 14.240000000000009  0 12  Z " stroke-width="2" stroke="#a4a4a4" fill="none" transform="matrix(1 0 0 1 187 890 )" mask="url(#clip48)" />
  </g>
</svg>