<?xml version="1.0" encoding="utf-8"?>
<svg version="1.1" xmlns:xlink="http://www.w3.org/1999/xlink" width="8px" height="8px" xmlns="http://www.w3.org/2000/svg">
  <g transform="matrix(1 0 0 1 -43 -127 )">
    <path d="M 47 127  C 49.24 127  51 128.76  51 131  C 51 133.24  49.24 135  47 135  C 44.76 135  43 133.24  43 131  C 43 128.76  44.76 127  47 127  Z " fill-rule="nonzero" fill="#c9c9c9" stroke="none" />
    <path d="M 47 127.5  C 48.96 127.5  50.5 129.04  50.5 131  C 50.5 132.96  48.96 134.5  47 134.5  C 45.04 134.5  43.5 132.96  43.5 131  C 43.5 129.04  45.04 127.5  47 127.5  Z " stroke-width="1" stroke="#ffffff" fill="none" />
  </g>
</svg>