<?xml version="1.0" encoding="utf-8"?>
<svg version="1.1" xmlns:xlink="http://www.w3.org/1999/xlink" width="12px" height="12px" xmlns="http://www.w3.org/2000/svg">
  <defs>
    <mask fill="white" id="clip68">
      <path d="M 0.11636363636363511 4.543516185307222  C 0.5319480519480522 2.2950184144213774  4.133679653679652 3.8457065322737067  4.133679653679652 3.8457065322737067  C 4.133679653679652 3.8457065322737067  4.96484848484848 0.19150998255477064  6.834978354978353 0.1791044776119403  C 8.705108225108225 0.16669897266910993  8.497316017316017 4.543516185307222  8.497316017316017 4.543516185307222  C 8.497316017316017 4.543516185307222  11.698008658008657 4.358984299282845  11.84 6.374878852490784  C 11.981991341991343 8.390773405698722  8.497316017316017 8.265167668152749  8.497316017316017 8.265167668152749  C 8.497316017316017 8.265167668152749  9.744069264069262 10.978871874394244  8.0817316017316 11.82089552238806  C 6.419393939393935 12.662919170381876  5.215584415584417 9.339794533824389  5.215584415584417 9.339794533824389  C 5.215584415584417 9.339794533824389  3.995151515151515 11.521612715642542  2.3328138528138513 11.056406280286891  C 0.670476190476188 10.591199844931241  2.3328138528138513 7.489823609226583  2.3328138528138513 7.489823609226583  C 2.3328138528138513 7.489823609226583  -0.2992207792207819 6.792013956193067  0.11636363636363511 4.543516185307222  Z " fill-rule="evenodd" />
    </mask>
  </defs>
  <g transform="matrix(1 0 0 1 -39 -263 )">
    <path d="M 0.11636363636363511 4.543516185307222  C 0.5319480519480522 2.2950184144213774  4.133679653679652 3.8457065322737067  4.133679653679652 3.8457065322737067  C 4.133679653679652 3.8457065322737067  4.96484848484848 0.19150998255477064  6.834978354978353 0.1791044776119403  C 8.705108225108225 0.16669897266910993  8.497316017316017 4.543516185307222  8.497316017316017 4.543516185307222  C 8.497316017316017 4.543516185307222  11.698008658008657 4.358984299282845  11.84 6.374878852490784  C 11.981991341991343 8.390773405698722  8.497316017316017 8.265167668152749  8.497316017316017 8.265167668152749  C 8.497316017316017 8.265167668152749  9.744069264069262 10.978871874394244  8.0817316017316 11.82089552238806  C 6.419393939393935 12.662919170381876  5.215584415584417 9.339794533824389  5.215584415584417 9.339794533824389  C 5.215584415584417 9.339794533824389  3.995151515151515 11.521612715642542  2.3328138528138513 11.056406280286891  C 0.670476190476188 10.591199844931241  2.3328138528138513 7.489823609226583  2.3328138528138513 7.489823609226583  C 2.3328138528138513 7.489823609226583  -0.2992207792207819 6.792013956193067  0.11636363636363511 4.543516185307222  Z " fill-rule="nonzero" fill="#ffcf9c" stroke="none" transform="matrix(1 0 0 1 39 263 )" />
    <path d="M 0.11636363636363511 4.543516185307222  C 0.5319480519480522 2.2950184144213774  4.133679653679652 3.8457065322737067  4.133679653679652 3.8457065322737067  C 4.133679653679652 3.8457065322737067  4.96484848484848 0.19150998255477064  6.834978354978353 0.1791044776119403  C 8.705108225108225 0.16669897266910993  8.497316017316017 4.543516185307222  8.497316017316017 4.543516185307222  C 8.497316017316017 4.543516185307222  11.698008658008657 4.358984299282845  11.84 6.374878852490784  C 11.981991341991343 8.390773405698722  8.497316017316017 8.265167668152749  8.497316017316017 8.265167668152749  C 8.497316017316017 8.265167668152749  9.744069264069262 10.978871874394244  8.0817316017316 11.82089552238806  C 6.419393939393935 12.662919170381876  5.215584415584417 9.339794533824389  5.215584415584417 9.339794533824389  C 5.215584415584417 9.339794533824389  3.995151515151515 11.521612715642542  2.3328138528138513 11.056406280286891  C 0.670476190476188 10.591199844931241  2.3328138528138513 7.489823609226583  2.3328138528138513 7.489823609226583  C 2.3328138528138513 7.489823609226583  -0.2992207792207819 6.792013956193067  0.11636363636363511 4.543516185307222  Z " stroke-width="2" stroke="#ffcf9c" fill="none" transform="matrix(1 0 0 1 39 263 )" mask="url(#clip68)" />
  </g>
</svg>