<?xml version="1.0" encoding="utf-8"?>
<svg version="1.1" xmlns:xlink="http://www.w3.org/1999/xlink" width="38px" height="37px" xmlns="http://www.w3.org/2000/svg">
  <defs>
    <mask fill="white" id="clip67">
      <path d="M 0.36848484848484453 14.009174904697268  C 1.684502164502165 7.076306777799247  13.089985569985561 11.857595141177262  13.089985569985561 11.857595141177262  C 13.089985569985561 11.857595141177262  15.722020202020188 0.5904891128772095  21.644098124098118 0.5522388059701493  C 27.566176046176047 0.513988499063089  26.908167388167385 14.009174904697268  26.908167388167385 14.009174904697268  C 26.908167388167385 14.009174904697268  37.04369408369408 13.44020158945544  37.49333333333333 19.65587646184658  C 37.94297258297259 25.871551334237726  26.908167388167385 25.484266976804307  26.908167388167385 25.484266976804307  C 26.908167388167385 25.484266976804307  30.85621933621933 33.85152161271559  25.592150072150062 36.44776119402985  C 20.328080808080795 39.04400077534412  16.516017316017322 28.7976998126252  16.516017316017322 28.7976998126252  C 16.516017316017322 28.7976998126252  12.651313131313131 35.52497253989784  7.387243867243863 34.09058603088458  C 2.1231746031745957 32.65619952187133  7.387243867243863 23.093622795115298  7.387243867243863 23.093622795115298  C 7.387243867243863 23.093622795115298  -0.947532467532476 20.94204303159529  0.36848484848484453 14.009174904697268  Z " fill-rule="evenodd" />
    </mask>
  </defs>
  <g transform="matrix(1 0 0 1 -27 -251 )">
    <path d="M 0.36848484848484453 14.009174904697268  C 1.684502164502165 7.076306777799247  13.089985569985561 11.857595141177262  13.089985569985561 11.857595141177262  C 13.089985569985561 11.857595141177262  15.722020202020188 0.5904891128772095  21.644098124098118 0.5522388059701493  C 27.566176046176047 0.513988499063089  26.908167388167385 14.009174904697268  26.908167388167385 14.009174904697268  C 26.908167388167385 14.009174904697268  37.04369408369408 13.44020158945544  37.49333333333333 19.65587646184658  C 37.94297258297259 25.871551334237726  26.908167388167385 25.484266976804307  26.908167388167385 25.484266976804307  C 26.908167388167385 25.484266976804307  30.85621933621933 33.85152161271559  25.592150072150062 36.44776119402985  C 20.328080808080795 39.04400077534412  16.516017316017322 28.7976998126252  16.516017316017322 28.7976998126252  C 16.516017316017322 28.7976998126252  12.651313131313131 35.52497253989784  7.387243867243863 34.09058603088458  C 2.1231746031745957 32.65619952187133  7.387243867243863 23.093622795115298  7.387243867243863 23.093622795115298  C 7.387243867243863 23.093622795115298  -0.947532467532476 20.94204303159529  0.36848484848484453 14.009174904697268  Z " fill-rule="nonzero" fill="#fdf363" stroke="none" transform="matrix(1 0 0 1 27 251 )" />
    <path d="M 0.36848484848484453 14.009174904697268  C 1.684502164502165 7.076306777799247  13.089985569985561 11.857595141177262  13.089985569985561 11.857595141177262  C 13.089985569985561 11.857595141177262  15.722020202020188 0.5904891128772095  21.644098124098118 0.5522388059701493  C 27.566176046176047 0.513988499063089  26.908167388167385 14.009174904697268  26.908167388167385 14.009174904697268  C 26.908167388167385 14.009174904697268  37.04369408369408 13.44020158945544  37.49333333333333 19.65587646184658  C 37.94297258297259 25.871551334237726  26.908167388167385 25.484266976804307  26.908167388167385 25.484266976804307  C 26.908167388167385 25.484266976804307  30.85621933621933 33.85152161271559  25.592150072150062 36.44776119402985  C 20.328080808080795 39.04400077534412  16.516017316017322 28.7976998126252  16.516017316017322 28.7976998126252  C 16.516017316017322 28.7976998126252  12.651313131313131 35.52497253989784  7.387243867243863 34.09058603088458  C 2.1231746031745957 32.65619952187133  7.387243867243863 23.093622795115298  7.387243867243863 23.093622795115298  C 7.387243867243863 23.093622795115298  -0.947532467532476 20.94204303159529  0.36848484848484453 14.009174904697268  Z " stroke-width="4" stroke="#fab6c5" fill="none" transform="matrix(1 0 0 1 27 251 )" mask="url(#clip67)" />
  </g>
</svg>