<?xml version="1.0" encoding="utf-8"?>
<svg version="1.1" xmlns:xlink="http://www.w3.org/1999/xlink" width="9px" height="9px" xmlns="http://www.w3.org/2000/svg">
  <g transform="matrix(1 0 0 1 -64 -552 )">
    <path d="M 68.5 552.5  C 70.74 552.5  72.5 554.26  72.5 556.5  C 72.5 558.74  70.74 560.5  68.5 560.5  C 66.26 560.5  64.5 558.74  64.5 556.5  C 64.5 554.26  66.26 552.5  68.5 552.5  Z " fill-rule="nonzero" fill="#cdcdcd" stroke="none" />
    <path d="M 68.5 552.5  C 70.74 552.5  72.5 554.26  72.5 556.5  C 72.5 558.74  70.74 560.5  68.5 560.5  C 66.26 560.5  64.5 558.74  64.5 556.5  C 64.5 554.26  66.26 552.5  68.5 552.5  Z " stroke-width="1" stroke="#ffffff" fill="none" stroke-opacity="0.9921568627450981" />
  </g>
</svg>