<?xml version="1.0" encoding="utf-8"?>
<svg version="1.1" xmlns:xlink="http://www.w3.org/1999/xlink" width="44px" height="28px" xmlns="http://www.w3.org/2000/svg">
  <defs>
    <mask fill="white" id="clip74">
      <path d="M 44 0.5  L 44 14  L 44 27.512489982642307  L 44 28  L 4 28  C 1.759999999999991 28  0 26.24000000000001  0 24  L 0 14  L 0.5 14  L 0.5 8  C 0.5 3.8000000000000114  3.800000000000012 0.5  8 0.5  L 44 0.5  Z " fill-rule="evenodd" />
    </mask>
  </defs>
  <g transform="matrix(1 0 0 1 -338 -419 )">
    <path d="M 44 0.5  L 44 14  L 44 27.512489982642307  L 44 28  L 4 28  C 1.759999999999991 28  0 26.24000000000001  0 24  L 0 14  L 0.5 14  L 0.5 8  C 0.5 3.8000000000000114  3.800000000000012 0.5  8 0.5  L 44 0.5  Z " fill-rule="nonzero" fill="#ffffff" stroke="none" transform="matrix(1 0 0 1 338 419 )" />
    <path d="M 44 0.5  L 44 14  L 44 27.512489982642307  L 44 28  L 4 28  C 1.759999999999991 28  0 26.24000000000001  0 24  L 0 14  L 0.5 14  L 0.5 8  C 0.5 3.8000000000000114  3.800000000000012 0.5  8 0.5  L 44 0.5  Z " stroke-width="2" stroke="#797979" fill="none" stroke-opacity="0.9921568627450981" transform="matrix(1 0 0 1 338 419 )" mask="url(#clip74)" />
  </g>
</svg>