<?xml version="1.0" encoding="utf-8"?>
<svg version="1.1" xmlns:xlink="http://www.w3.org/1999/xlink" width="45px" height="29px" xmlns="http://www.w3.org/2000/svg">
  <g transform="matrix(1 0 0 1 -422 -415 )">
    <path d="M 44 27.5  L 44 0.5  L 8.000000000000004 0.5  C 3.8000000000000025 0.5  0.49999999999999956 3.8  0.49999999999999956 8  L 0.49999999999999956 20  C 0.49999999999999956 24.200000000000003  3.8000000000000025 27.5  8.000000000000004 27.5  L 44 27.5  Z " fill-rule="nonzero" fill="#ffffff" stroke="none" transform="matrix(1 0 0 1 422 415 )" />
    <path d="M 44 0.5  L 8.000000000000004 0.5  C 3.8000000000000025 0.5  0.49999999999999956 3.8  0.49999999999999956 8  L 0.49999999999999956 20  C 0.49999999999999956 24.200000000000003  3.8000000000000025 27.5  8.000000000000004 27.5  L 44 27.5  " stroke-width="1" stroke="#797979" fill="none" stroke-opacity="0.9921568627450981" transform="matrix(1 0 0 1 422 415 )" />
  </g>
</svg>