<?xml version="1.0" encoding="utf-8"?>
<svg version="1.1" xmlns:xlink="http://www.w3.org/1999/xlink" width="25px" height="20px" xmlns="http://www.w3.org/2000/svg">
  <defs>
    <mask fill="white" id="clip92">
      <path d="M 12.5 20  C 10.347784537045019 20  8.33736595365073 19.58406248662198  6.585002324417053 18.845193918283037  L 3.169951367216702 19.989265400711385  L 3.208928257603224 16.75035993881772  C 1.2066587976945164 14.982736641874038  0 12.623003826140058  0 10  C 0 4.399999999999994  5.499999999999991 0  12.5 0  C 19.50000000000001 0  25 4.399999999999994  25 10  C 25 15.600000000000005  19.50000000000001 20  12.5 20  Z " fill-rule="evenodd" />
    </mask>
  </defs>
  <g transform="matrix(1 0 0 1 -371 -460 )">
    <path d="M 12.5 20  C 10.347784537045019 20  8.33736595365073 19.58406248662198  6.585002324417053 18.845193918283037  L 3.169951367216702 19.989265400711385  L 3.208928257603224 16.75035993881772  C 1.2066587976945164 14.982736641874038  0 12.623003826140058  0 10  C 0 4.399999999999994  5.499999999999991 0  12.5 0  C 19.50000000000001 0  25 4.399999999999994  25 10  C 25 15.600000000000005  19.50000000000001 20  12.5 20  Z " fill-rule="nonzero" fill="#ffffff" stroke="none" transform="matrix(1 0 0 1 371 460 )" />
    <path d="M 12.5 20  C 10.347784537045019 20  8.33736595365073 19.58406248662198  6.585002324417053 18.845193918283037  L 3.169951367216702 19.989265400711385  L 3.208928257603224 16.75035993881772  C 1.2066587976945164 14.982736641874038  0 12.623003826140058  0 10  C 0 4.399999999999994  5.499999999999991 0  12.5 0  C 19.50000000000001 0  25 4.399999999999994  25 10  C 25 15.600000000000005  19.50000000000001 20  12.5 20  Z " stroke-width="2" stroke="#797979" fill="none" transform="matrix(1 0 0 1 371 460 )" mask="url(#clip92)" />
  </g>
</svg>