<?xml version="1.0" encoding="utf-8"?>
<svg version="1.1" xmlns:xlink="http://www.w3.org/1999/xlink" width="25px" height="23px" xmlns="http://www.w3.org/2000/svg">
  <defs>
    <mask fill="white" id="clip94">
      <path d="M 0.24242424242423982 8.708406021838844  C 1.1082251082251087 4.39878529430764  8.611832611832607 7.370937520191271  8.611832611832607 7.370937520191271  C 8.611832611832607 7.370937520191271  10.343434343434334 0.36706079989664375  14.239538239538236 0.34328358208955223  C 18.135642135642136 0.3195063642824607  17.7027417027417 8.708406021838844  17.7027417027417 8.708406021838844  C 17.7027417027417 8.708406021838844  24.37085137085137 8.354719906958787  24.666666666666668 12.218517800607335  C 24.962481962481963 16.082315694255882  17.7027417027417 15.841571363959433  17.7027417027417 15.841571363959433  C 17.7027417027417 15.841571363959433  20.300144300144296 21.042837759255633  16.83694083694083 22.656716417910445  C 13.373737373737365 24.270595076565264  10.86580086580087 17.901272856496746  10.86580086580087 17.901272856496746  C 10.86580086580087 17.901272856496746  8.323232323232324 22.083091038314873  4.860028860028858 21.191445370549875  C 1.3968253968253919 20.29979970278488  4.860028860028858 14.355495251017617  4.860028860028858 14.355495251017617  C 4.860028860028858 14.355495251017617  -0.6233766233766289 13.018026749370046  0.24242424242423982 8.708406021838844  Z " fill-rule="evenodd" />
    </mask>
  </defs>
  <g transform="matrix(1 0 0 1 -189 -1556 )">
    <path d="M 0.24242424242423982 8.708406021838844  C 1.1082251082251087 4.39878529430764  8.611832611832607 7.370937520191271  8.611832611832607 7.370937520191271  C 8.611832611832607 7.370937520191271  10.343434343434334 0.36706079989664375  14.239538239538236 0.34328358208955223  C 18.135642135642136 0.3195063642824607  17.7027417027417 8.708406021838844  17.7027417027417 8.708406021838844  C 17.7027417027417 8.708406021838844  24.37085137085137 8.354719906958787  24.666666666666668 12.218517800607335  C 24.962481962481963 16.082315694255882  17.7027417027417 15.841571363959433  17.7027417027417 15.841571363959433  C 17.7027417027417 15.841571363959433  20.300144300144296 21.042837759255633  16.83694083694083 22.656716417910445  C 13.373737373737365 24.270595076565264  10.86580086580087 17.901272856496746  10.86580086580087 17.901272856496746  C 10.86580086580087 17.901272856496746  8.323232323232324 22.083091038314873  4.860028860028858 21.191445370549875  C 1.3968253968253919 20.29979970278488  4.860028860028858 14.355495251017617  4.860028860028858 14.355495251017617  C 4.860028860028858 14.355495251017617  -0.6233766233766289 13.018026749370046  0.24242424242423982 8.708406021838844  Z " fill-rule="nonzero" fill="#ffcf9c" stroke="none" transform="matrix(1 0 0 1 189 1556 )" />
    <path d="M 0.24242424242423982 8.708406021838844  C 1.1082251082251087 4.39878529430764  8.611832611832607 7.370937520191271  8.611832611832607 7.370937520191271  C 8.611832611832607 7.370937520191271  10.343434343434334 0.36706079989664375  14.239538239538236 0.34328358208955223  C 18.135642135642136 0.3195063642824607  17.7027417027417 8.708406021838844  17.7027417027417 8.708406021838844  C 17.7027417027417 8.708406021838844  24.37085137085137 8.354719906958787  24.666666666666668 12.218517800607335  C 24.962481962481963 16.082315694255882  17.7027417027417 15.841571363959433  17.7027417027417 15.841571363959433  C 17.7027417027417 15.841571363959433  20.300144300144296 21.042837759255633  16.83694083694083 22.656716417910445  C 13.373737373737365 24.270595076565264  10.86580086580087 17.901272856496746  10.86580086580087 17.901272856496746  C 10.86580086580087 17.901272856496746  8.323232323232324 22.083091038314873  4.860028860028858 21.191445370549875  C 1.3968253968253919 20.29979970278488  4.860028860028858 14.355495251017617  4.860028860028858 14.355495251017617  C 4.860028860028858 14.355495251017617  -0.6233766233766289 13.018026749370046  0.24242424242423982 8.708406021838844  Z " stroke-width="2" stroke="#ffcf9c" fill="none" transform="matrix(1 0 0 1 189 1556 )" mask="url(#clip94)" />
  </g>
</svg>