<?xml version="1.0" encoding="utf-8"?>
<svg version="1.1" xmlns:xlink="http://www.w3.org/1999/xlink" width="63px" height="55px" xmlns="http://www.w3.org/2000/svg">
  <defs>
    <mask fill="white" id="clip93">
      <path d="M 0.6109090909090844 20.824449182658103  C 2.7927272727272734 10.518834399431313  21.70181818181817 17.626154939587824  21.70181818181817 17.626154939587824  C 21.70181818181817 17.626154939587824  26.06545454545452 0.8777540867093655  35.883636363636356 0.8208955223880597  C 45.70181818181818 0.7640369580667539  44.61090909090908 20.824449182658103  44.61090909090908 20.824449182658103  C 44.61090909090908 20.824449182658103  61.41454545454545 19.978678038379705  62.160000000000004 29.218194740582756  C 62.905454545454546 38.45771144278581  44.61090909090908 37.88201847903343  44.61090909090908 37.88201847903343  C 44.61090909090908 37.88201847903343  51.15636363636363 50.31982942430695  42.429090909090895 54.179104477611936  C 33.70181818181816 58.038379530916934  27.38181818181819 42.80739161336178  27.38181818181819 42.80739161336178  C 27.38181818181819 42.80739161336178  20.974545454545453 52.80739161336165  12.24727272727272 50.67519545131492  C 3.519999999999987 48.54299928926819  12.24727272727272 34.32835820895517  12.24727272727272 34.32835820895517  C 12.24727272727272 34.32835820895517  -1.5709090909091048 31.13006396588489  0.6109090909090844 20.824449182658103  Z " fill-rule="evenodd" />
    </mask>
  </defs>
  <g transform="matrix(1 0 0 1 -172 -1540 )">
    <path d="M 0.6109090909090844 20.824449182658103  C 2.7927272727272734 10.518834399431313  21.70181818181817 17.626154939587824  21.70181818181817 17.626154939587824  C 21.70181818181817 17.626154939587824  26.06545454545452 0.8777540867093655  35.883636363636356 0.8208955223880597  C 45.70181818181818 0.7640369580667539  44.61090909090908 20.824449182658103  44.61090909090908 20.824449182658103  C 44.61090909090908 20.824449182658103  61.41454545454545 19.978678038379705  62.160000000000004 29.218194740582756  C 62.905454545454546 38.45771144278581  44.61090909090908 37.88201847903343  44.61090909090908 37.88201847903343  C 44.61090909090908 37.88201847903343  51.15636363636363 50.31982942430695  42.429090909090895 54.179104477611936  C 33.70181818181816 58.038379530916934  27.38181818181819 42.80739161336178  27.38181818181819 42.80739161336178  C 27.38181818181819 42.80739161336178  20.974545454545453 52.80739161336165  12.24727272727272 50.67519545131492  C 3.519999999999987 48.54299928926819  12.24727272727272 34.32835820895517  12.24727272727272 34.32835820895517  C 12.24727272727272 34.32835820895517  -1.5709090909091048 31.13006396588489  0.6109090909090844 20.824449182658103  Z " fill-rule="nonzero" fill="#fdf363" stroke="none" transform="matrix(1 0 0 1 172 1540 )" />
    <path d="M 0.6109090909090844 20.824449182658103  C 2.7927272727272734 10.518834399431313  21.70181818181817 17.626154939587824  21.70181818181817 17.626154939587824  C 21.70181818181817 17.626154939587824  26.06545454545452 0.8777540867093655  35.883636363636356 0.8208955223880597  C 45.70181818181818 0.7640369580667539  44.61090909090908 20.824449182658103  44.61090909090908 20.824449182658103  C 44.61090909090908 20.824449182658103  61.41454545454545 19.978678038379705  62.160000000000004 29.218194740582756  C 62.905454545454546 38.45771144278581  44.61090909090908 37.88201847903343  44.61090909090908 37.88201847903343  C 44.61090909090908 37.88201847903343  51.15636363636363 50.31982942430695  42.429090909090895 54.179104477611936  C 33.70181818181816 58.038379530916934  27.38181818181819 42.80739161336178  27.38181818181819 42.80739161336178  C 27.38181818181819 42.80739161336178  20.974545454545453 52.80739161336165  12.24727272727272 50.67519545131492  C 3.519999999999987 48.54299928926819  12.24727272727272 34.32835820895517  12.24727272727272 34.32835820895517  C 12.24727272727272 34.32835820895517  -1.5709090909091048 31.13006396588489  0.6109090909090844 20.824449182658103  Z " stroke-width="4" stroke="#fab6c5" fill="none" transform="matrix(1 0 0 1 172 1540 )" mask="url(#clip93)" />
  </g>
</svg>