<?xml version="1.0" encoding="utf-8"?>
<svg version="1.1" xmlns:xlink="http://www.w3.org/1999/xlink" width="79px" height="15px" xmlns="http://www.w3.org/2000/svg">
  <defs>
    <mask fill="white" id="clip70">
      <path d="M 0 11.25  L 0 3.75  C 0 1.6499999999999915  1.6552380952380867 0  3.761904761904762 0  L 43.261904761904766 0  L 75.23809523809524 0  C 77.34476190476191 0  79 1.6499999999999915  79 3.75  L 79 11.25  C 79 13.350000000000009  77.34476190476191 15  75.23809523809524 15  L 3.761904761904762 15  C 1.6552380952380867 15  0 13.350000000000009  0 11.25  Z " fill-rule="evenodd" />
    </mask>
  </defs>
  <g transform="matrix(1 0 0 1 -54 -251 )">
    <path d="M 0 11.25  L 0 3.75  C 0 1.6499999999999915  1.6552380952380867 0  3.761904761904762 0  L 43.261904761904766 0  L 75.23809523809524 0  C 77.34476190476191 0  79 1.6499999999999915  79 3.75  L 79 11.25  C 79 13.350000000000009  77.34476190476191 15  75.23809523809524 15  L 3.761904761904762 15  C 1.6552380952380867 15  0 13.350000000000009  0 11.25  Z " fill-rule="nonzero" fill="#ffffff" stroke="none" transform="matrix(1 0 0 1 54 251 )" />
    <path d="M 0 11.25  L 0 3.75  C 0 1.6499999999999915  1.6552380952380867 0  3.761904761904762 0  L 43.261904761904766 0  L 75.23809523809524 0  C 77.34476190476191 0  79 1.6499999999999915  79 3.75  L 79 11.25  C 79 13.350000000000009  77.34476190476191 15  75.23809523809524 15  L 3.761904761904762 15  C 1.6552380952380867 15  0 13.350000000000009  0 11.25  Z " stroke-width="2" stroke="#c40000" fill="none" stroke-opacity="0.25098039215686274" transform="matrix(1 0 0 1 54 251 )" mask="url(#clip70)" />
  </g>
</svg>